<?xml version="1.0" encoding="UTF-8"?>
<svg id="Ebene_1" data-name="Ebene 1" xmlns="http://www.w3.org/2000/svg" viewBox="0 0 257 359">
  <path d="M155.99,99.66v140.27c0,32.97,1.34,52.99,4.02,60.08,2.68,7.1,5.55,13.13,8.62,18.11,5.75,9.97,15.81,14.95,30.18,14.95s24.43-1.91,30.18-5.75v11.5c-18.4,13.03-38.52,19.55-60.36,19.55-32.19,0-56.73-7.66-73.59-23-16.87-15.33-25.3-42.73-25.3-82.21V99.66H27.21v-11.5h42.54c18.4-3.06,34.68-11.97,48.87-26.73,14.17-14.75,23.95-35.16,29.32-61.23h8.05v87.96h66.69v11.5h-66.69Z" fill="#e5dbfd"/>
</svg>