<?xml version="1.0" encoding="UTF-8"?>
<svg id="Ebene_1" data-name="Ebene 1" xmlns="http://www.w3.org/2000/svg" viewBox="0 0 937 359">
  <path d="M96.28,74.4v104.65c0,24.59,1,39.53,3,44.82,2,5.29,4.14,9.8,6.43,13.51,4.29,7.44,11.79,11.15,22.52,11.15s18.23-1.43,22.52-4.29v8.58c-13.72,9.72-28.73,14.58-45.03,14.58-24.02,0-42.32-5.72-54.9-17.15-12.58-11.43-18.87-31.88-18.87-61.33v-114.51H.21v-8.58h31.74c13.72-2.28,25.87-8.93,36.45-19.94,10.57-11,17.87-26.23,21.87-45.68h6v65.62h49.75v8.58h-49.75Z" fill="#e5dbfd"/>
  <path d="M260.11,346.52c-8.58,7.29-20.02,10.94-34.31,10.94s-25.45-3.08-33.45-9.22c-8.01-6.15-12.01-14.3-12.01-24.45s2.93-18.23,8.79-24.23c5.86-6,12.93-9.01,21.23-9.01s15.29,1.57,21.02,4.72c5.72,3.14,9.72,6.57,12.01,10.29,6.29,10,12.22,15.01,17.8,15.01s10.51-4.87,14.8-14.58l18.01-42.46-100.36-189.14h-17.16v-8.58h115.37v8.58h-21.44l57.47,113.22,49.32-113.22h-34.31v-8.58h70.34v8.58h-25.73l-102.93,236.31c-7.72,16.58-15.87,28.52-24.45,35.81Z" fill="#e5dbfd"/>
  <path d="M533.3,85.55c9.72-16.58,27.16-24.88,52.32-24.88s46.17,9.15,63.05,27.45c16.87,18.3,25.3,44.17,25.3,77.63s-8.3,59.61-24.88,78.48c-16.59,18.87-36.74,28.31-60.47,28.31-11.73,0-22.73-2.43-33.02-7.29-10.29-4.86-17.73-12.15-22.3-21.87v101.22h21.44v8.58h-85.78V74.4h-21.44v-8.58h85.78v19.73ZM533.3,159.75v70.77c7.72,15.44,17.8,23.16,30.24,23.16s23.09-7.14,31.95-21.44c8.86-14.29,13.29-37.24,13.29-68.83s-3.43-53.75-10.29-66.48c-6.86-12.72-17.3-19.08-31.31-19.08s-23.16,5.72-27.45,17.16c-4.29,11.44-6.43,33.02-6.43,64.76Z" fill="#e5dbfd"/>
  <path d="M827.94,267.4c-27.17,0-51.75-8.86-73.77-26.59-22.02-17.72-33.02-42.89-33.02-75.48,0-17.44,3.22-33.02,9.65-46.75s15.01-24.59,25.73-32.59c10.72-8,22.23-14.08,34.52-18.23,12.29-4.14,24.88-6.22,37.74-6.22s25.52,2.08,37.96,6.22c12.44,4.15,24.02,10.23,34.74,18.23,10.72,8.01,19.37,18.87,25.95,32.59,6.57,13.72,9.86,29.16,9.86,46.32s-3.29,32.45-9.86,45.89c-6.58,13.44-15.3,24.16-26.16,32.17-21.73,16.3-46.18,24.45-73.34,24.45ZM796.2,237.16c6.29,14.44,17.15,21.66,32.59,21.66s26.44-7.29,33.02-21.87c6.57-14.58,9.86-38.67,9.86-72.27s-3.29-57.75-9.86-72.48c-6.58-14.72-17.58-22.09-33.02-22.09s-26.31,7.36-32.59,22.09c-6.29,14.73-9.44,38.96-9.44,72.69s3.14,57.83,9.44,72.27Z" fill="#e5dbfd"/>
</svg>